<svg width="15" height="15" viewBox="0 0 15 15" fill="none" xmlns="http://www.w3.org/2000/svg">
<path d="M9.35645 14.2188H5.60645C2.2127 14.2188 0.762695 12.7688 0.762695 9.375V5.625C0.762695 2.23125 2.2127 0.78125 5.60645 0.78125H6.85645C7.1127 0.78125 7.3252 0.99375 7.3252 1.25C7.3252 1.50625 7.1127 1.71875 6.85645 1.71875H5.60645C2.7252 1.71875 1.7002 2.74375 1.7002 5.625V9.375C1.7002 12.2563 2.7252 13.2812 5.60645 13.2812H9.35645C12.2377 13.2812 13.2627 12.2563 13.2627 9.375V8.125C13.2627 7.86875 13.4752 7.65625 13.7314 7.65625C13.9877 7.65625 14.2002 7.86875 14.2002 8.125V9.375C14.2002 12.7688 12.7564 14.2188 9.35645 14.2188Z" fill="#0E7B81"/>
<path d="M7.98774 9.52493C7.89399 9.52493 7.80649 9.49993 7.72524 9.44368C7.59399 9.35618 7.51899 9.21243 7.51899 9.05618C7.51899 8.98743 7.51274 8.91243 7.50024 8.83743C7.45649 8.50618 7.30649 8.21243 7.05649 7.95618C6.80024 7.69993 6.48774 7.53743 6.14399 7.49368C6.09399 7.48743 6.01274 7.48118 5.93774 7.48743C5.78149 7.49993 5.62524 7.43118 5.53149 7.30618C5.43774 7.18118 5.41274 7.01243 5.46274 6.86243C5.53774 6.64993 5.65649 6.44993 5.79399 6.29368L6.56274 5.33118C7.90024 3.66243 10.594 1.66243 12.5815 0.86868C13.0377 0.69368 13.519 0.79368 13.8502 1.12493C14.194 1.46868 14.294 1.95618 14.1127 2.39993C13.319 4.38118 11.319 7.08118 9.65649 8.41243L8.67524 9.19993C8.48149 9.33743 8.32524 9.43118 8.16274 9.49368C8.10649 9.51243 8.04399 9.52493 7.98774 9.52493ZM6.70024 6.66868C7.08149 6.79368 7.42524 7.00618 7.71899 7.29368C8.00649 7.58118 8.21274 7.91243 8.33149 8.26868L9.06899 7.67493C10.6252 6.42493 12.5002 3.89993 13.244 2.04368C13.294 1.92493 13.2377 1.83743 13.1877 1.78118C13.1565 1.74993 13.069 1.68118 12.9252 1.73743C11.0752 2.48118 8.55024 4.35618 7.30024 5.91243L6.70024 6.66868Z" fill="#0E7B81"/>
<path d="M4.81213 11.7189C4.41213 11.7189 4.03088 11.5626 3.74338 11.2751C3.41213 10.9439 3.24963 10.4876 3.30588 10.0189L3.43713 8.7939C3.57463 7.52515 4.60588 6.58765 5.89963 6.56265C5.99963 6.5564 6.12463 6.56265 6.24338 6.5689C6.81213 6.6439 7.31838 6.8939 7.71838 7.30015C8.11838 7.70015 8.36213 8.17515 8.43088 8.71265C8.44963 8.8314 8.45588 8.95015 8.45588 9.06265C8.45588 9.7439 8.19338 10.3876 7.71213 10.8689C7.31838 11.2626 6.80588 11.5064 6.22463 11.5814L4.98713 11.7126C4.92463 11.7189 4.86838 11.7189 4.81213 11.7189ZM5.99963 7.4939C5.98088 7.4939 5.95588 7.4939 5.93713 7.4939C5.21838 7.51265 4.46213 7.9939 4.36838 8.8939L4.23713 10.1251C4.21838 10.3064 4.28088 10.4876 4.40588 10.6126C4.53088 10.7376 4.70588 10.8001 4.88088 10.7814L6.11213 10.6501C6.47463 10.6064 6.79963 10.4501 7.04338 10.2064C7.34338 9.90015 7.51213 9.50015 7.51213 9.06265C7.51213 8.9939 7.50588 8.9189 7.49338 8.8439C7.44963 8.51265 7.29963 8.2189 7.04963 7.96265C6.79338 7.7064 6.48088 7.5439 6.13713 7.50015C6.10588 7.4939 6.05588 7.4939 5.99963 7.4939Z" fill="#0E7B81"/>
<path d="M9.8873 7.95615C9.63105 7.95615 9.41855 7.74365 9.41855 7.4874C9.41855 6.44365 8.56855 5.5874 7.51855 5.5874C7.2623 5.5874 7.0498 5.3749 7.0498 5.11865C7.0498 4.8624 7.2623 4.6499 7.51855 4.6499C9.08105 4.6499 10.3561 5.91865 10.3561 7.4874C10.3561 7.74365 10.1498 7.95615 9.8873 7.95615Z" fill="#0E7B81"/>
</svg>
